<svg width="32" height="31" xmlns="http://www.w3.org/2000/svg" aria-hidden="true" class="support-icon"><g fill="none" fill-rule="evenodd"><path d="M13.606 29.692v-6.906c0-.347-.146-.677-.402-.911l-4.05-3.77c-.511-.475-1.356-.445-1.966.222-.52.514-.663 1.463-.138 1.97l2.48 2.493" stroke="#333" stroke-width="2" stroke-linecap="round"></path><path d="M6.621 18.328 5.132 17.26c-.177-.127-.36-.421-.346-.824l-.139-3.39c0-.842-.812-1.527-1.655-1.527h0c-.842 0-1.526.683-1.526 1.526l-.247 6.767c0 .484.203.945.56 1.272l6.877 6.3-.222 2.569M17.949 29.692v-6.906c0-.347.146-.677.402-.911l4.05-3.77c.51-.475 1.356-.445 1.966.222.519.514.663 1.463.138 1.97l-2.48 2.493" stroke="#333" stroke-width="2" stroke-linecap="round"></path><path d="m24.933 18.328 1.489-1.068c.177-.127.36-.421.346-.824l.139-3.39c0-.842.812-1.527 1.655-1.527h0c.843 0 1.526.683 1.526 1.526l.247 6.767c0 .484-.203.945-.56 1.272l-6.877 6.3.222 2.569" stroke="#333" stroke-width="2" stroke-linecap="round"></path><path d="M24.645 9.967a8.769 8.769 0 0 0-8.77-8.77 8.77 8.77 0 1 0 0 17.539 8.769 8.769 0 0 0 8.77-8.77Z" stroke="#F9C606" stroke-linecap="round" stroke-linejoin="round"></path><path d="M16.059 16.156a.968.968 0 0 1-.718-.298.99.99 0 0 1-.292-.721c0-.277.098-.513.292-.705a.984.984 0 0 1 .718-.29c.273 0 .506.097.702.29a.953.953 0 0 1 .293.705.986.986 0 0 1-.293.72.949.949 0 0 1-.702.299Zm-1.051-3.641c0-.603.152-1.161.453-1.672.303-.511.721-.91 1.256-1.2a1.5 1.5 0 0 0 .617-.612c.15-.27.225-.568.225-.894 0-.466-.166-.86-.498-1.182a1.637 1.637 0 0 0-1.186-.486 1.63 1.63 0 0 0-1.19.486 1.59 1.59 0 0 0-.494 1.182h-1.956c0-.663.163-1.27.492-1.821.329-.55.769-.99 1.319-1.315a3.535 3.535 0 0 1 1.829-.488c.668 0 1.278.163 1.829.488.55.326.99.765 1.318 1.315.329.55.493 1.158.493 1.82 0 .685-.167 1.317-.501 1.897a3.416 3.416 0 0 1-1.374 1.336c-.449.24-.675.622-.675 1.146h-1.957Z" fill="#000"></path></g></svg>